# xmcd CD database file
#
# Track frame offsets:
#	150
#	25818
#	47590
#	70295
#	101920
#	125114
#	146512
#
# Disc length: 2274 seconds
#
# Revision: 0
# Processed by: cddbd v1.5.2PL0 Copyright (c) Steve Scherf et al.
# Submitted via: CDex 1.51
#
DISCID=6508e007
DTITLE=Todd,Sharpville - Porchlight CD 1
DYEAR=2010
DGENRE=Blues
TTITLE0=If Love Is A Crime'''
TTITLE1=Lousy Husband (But A Real Good Dad)
TTITLE2=Used
TTITLE3=Why Does It Rain?
TTITLE4=Can`t Stand The Crook***
TTITLE5=Everything Will Be Alright
TTITLE6=Old Feeling
EXTD=YEAR: 2010
EXTT0=
EXTT1=
EXTT2=
EXTT3=
EXTT4=
EXTT5=
EXTT6=
PLAYORDER=
